# xmcd
# 
# Track frame offsets:
#     150
#     17485
#     34250
#     53065
#     71095
#     85712
#     111192
#     127450
#     145200
#     177397
#     195090
#     211310
#     232960
#     247805
#     285425
# 
# Disc length: 4078
# 
# Revision: 6
# Processed by: cddbd v1.5.2PL0 Copyright (c) Steve Scherf et al.
# Submitted via: fre:ac v1.0.17
# 
DISCID=cd0fec0f
DTITLE=Various Artist - Good Whiskey Blues
DYEAR=1992
DGENRE=Blues
TTITLE0=Doug Davis Band - Down Don't Bother Me
TTITLE1=Michael Henderson and The Blue Bloods - Ramblin' On My Mind
TTITLE2=Tombstone Bullets featuring Jimmy Hall - Murdered By Love
TTITLE3=Beat Daddys - Livin' This Love
TTITLE4=Billy C. Farlow - A Little Meat On The Side
TTITLE5=Freddie and The Screamers - Full Moon On Main Street
TTITLE6=Hypnotics - Womanizer
TTITLE7=Zip Gibson - Smoking Hookah Blues
TTITLE8=Toler Brothers - Goin' Down Slow
TTITLE9=Bleu Jackson - Lightning
TTITLE10=Bleu Jackson - You Left Your Mark On Me
TTITLE11=Jim Liban - Skin Hunger
TTITLE12=Mojo Men - Midnight Drag
TTITLE13=Homesick James - 12 Year Old Boy
TTITLE14=Steddy Eddy - Blue Train
EXTD=
EXTT0=
EXTT1=
EXTT2=Tombstone Bullets - featuring Jimmy Hall
EXTT3=Beat Daddys\n
EXTT4=
EXTT5=
EXTT6=
EXTT7=
EXTT8=
EXTT9=
EXTT10=
EXTT11=
EXTT12=
EXTT13=
EXTT14=
PLAYORDER=
